<svg id="Lager_1" data-name="Lager 1" xmlns="http://www.w3.org/2000/svg" viewBox="0 0 736 1894"><defs><style>.cls-1{fill:#fff;}</style></defs><title>Rityta 1</title><path class="cls-1" d="M435.85,192.15l111.26-74.4L509.59,82.53H435.85V46.65H669.9V82.53H560.61l109.29,102v50l-97.44-91.84L435.85,235.6Z"/><path class="cls-1" d="M595.84,268.49l9.55,14.81L612,305.36V336L606.37,358l-17.45,26-23,9.22H472.06L452,407.08l-20.41-28.31L453,364.28l-4.28-3.95L433.22,330V309l6.91-22.38,9.55-16.13,27.65-19.09h20.08l22.71,4.94,25,24.69,8.23,32.26V335l-7.24,21.73-1,1.32H559.3l6.58-2.63,7.57-11.19,3.62-14.48V308.65l-4-10.86-5.93-8.89-8.89-9.22,25.35-24.36ZM495.43,358h9.22l5.6-5.27,3.62-7.57L518.48,330V317.21l-4.94-17.78L502.68,288.9l-8.56-2.3h-6.58l-11.85,8.23-3.29,5.93-4.28,12.84v9.22l8.23,21.4,11.85,11.19Z"/><path class="cls-1" d="M605.05,529.86H570.16V486.74H480l-7.9,5.93-4,8.89v6.91L475,535.13,440.79,544l-7.57-33.58v-15.8l9.22-24.36,26.66-18.76H570.16V421.89h34.89v29.63h60.57v35.22H605.05Z"/><path class="cls-1" d="M577.07,643.1,569.83,628,557,616.44l-14.15-6.58h-107V574.63H609.33v35.22H596.82l4,4,11.19,23v22.71l-5.6,20.08-33.91-8.56,4.61-16.79Z"/><path class="cls-1" d="M609.33,745.54H435.85V710.32H609.33Z"/><path class="cls-1" d="M612,842.9v29.63l-8.23,30.61-28,20.74H435.85V888.65H562.92l8.89-6.25,5.27-16.46V848.49l-13.5-20.41-11.19-7.9H435.85V785H609.33v35.22H598.8Z"/><path class="cls-1" d="M54,78.58,84.6,55.21l24.69-7.57H274.87V83.52H113.24l-12.51,3.62-17.45,13.5-9.55,25.68v19.09l9.55,25.35,17.45,14.15,12.51,3.62H274.87v35.55H109.29L84.6,216.51,54,193.14l-15.8-42.46v-29.3Z"/><path class="cls-1" d="M50.37,377.19,38.19,357.11V326.16l16.13-34.24,30-22.06,24-7.24h37.86l24.69,7.24,29.63,22.06,16.46,33.58v29l-7.24,19.75-2,2.63H289v35.22H40.82V377.19Zm128.05-16.13,4-10.86V331.43L173.15,315l-18.76-13.83-12.51-3.29H112.26l-11.52,3.29-19.09,13.5-8.56,18.11v17.78l12.51,18.1,11.85,8.23h67.81l6.58-5.27Z"/><path class="cls-1" d="M50.37,567.54,38.19,547.46V516.52l16.13-34.24,30-22.06,24-7.24h37.86l24.69,7.24,29.63,22.06,16.46,33.58v29l-7.24,19.75-2,2.63H289v35.22H40.82V567.54Zm128.05-16.13,4-10.86V521.78l-9.22-16.46L154.39,491.5l-12.51-3.29H112.26l-11.52,3.29L81.64,505,73.08,523.1v17.78L85.59,559l11.85,8.23h67.81l6.58-5.27Z"/><path class="cls-1" d="M150.11,697.42l-9.55,48.06-12.84,19.42L106,778.4H76.37L57,765.56,44.77,748.78l-6.58-23v-29l6.91-27.32,12.84-15.8,11.85-10.53,23.7,24.69-9.88,8.56L78,683.6l-5.27,19.09v19.09L76,732.65l4.61,6.58,5.93,4.28h9.55l6.91-4.28L108,732l9.22-44.44L129,665.49,148.79,651h30.94l19.42,11.19,12.18,16.13,5.6,19.75v29l-6.91,26-15.8,23.37-29-19.42,12.18-17.78,4.94-15.8V704l-3.29-11.85-3-3.29-5.27-3H159.66l-5.93,4.61Z"/><path class="cls-1" d="M210,904.15H175.13V861H84.93L77,867l-4,8.89v6.91L80,909.42l-34.23,8.89-7.57-33.58v-15.8l9.22-24.36,26.66-18.76H175.13V796.18H210v29.63h60.57V861H210Z"/><path class="cls-1" d="M182,1017.39l-7.24-15.14L162,990.73l-14.16-6.58h-107V948.92H214.3v35.22H201.79l3.95,4,11.19,23v22.71l-5.6,20.08-33.91-8.56,4.61-16.79Z"/><path class="cls-1" d="M54.32,1093.25l25.35-17.45,28.31-6.26h38.84l28.31,6.26,25.35,17.45,16.46,33.25v34.89L200.48,1195l-25.35,17.45-28.31,5.93H108l-28.31-5.93L54.32,1195l-16.13-33.58V1126.5Zm27,78.68,11.19,7.24,20.08,4.28h30.28l19.09-4.28,11.85-7.9,8.23-16.13v-22.71L173.81,1117l-11.52-8.23-19.42-4H112.59l-20.41,4-10.86,7.57-8.56,16.79v21.73Z"/><path class="cls-1" d="M216.94,1316.8v30l-8.23,30.61-13.83,9.88,9.22,11.19,12.84,22.38v30l-8.23,30.61-28,20.74H40.82v-35.22H167.89l8.89-6.25L182,1444.2v-17.78L168.55,1406l-11.19-7.9H40.82v-35.22H167.89l8.89-6.25,5.27-16.46V1322.4L168.55,1302l-11.19-7.9H40.82v-35.22H214.3v35.22H203.77Z"/><path class="cls-1" d="M100.73,1576.95l-19.42,13.83-8.23,17.12v16.79l5.27,19.75,12.18,20.08-28.31,18.43L45.43,1657.6l-7.24-29V1601l16.46-33.58,29.63-22.06,24-6.91h37.86l24.69,6.91,29.63,22.06L216.94,1601v29.63l-16.46,33.58-29.63,21.73-22.71,7.9h-39.5V1573.66Zm42.8,81.31,10.53-3.62,18.76-13.5,9.22-16.79v-17.78l-8.56-16.13-19.09-14.16-10.86-2.3Z"/><path class="cls-1" d="M182,1802.11,174.8,1787,162,1775.45l-14.16-6.58h-107v-35.22H214.3v35.22H201.79l3.95,4,11.19,23v22.71l-5.6,20.08-33.91-8.56L182,1813.3Z"/><rect class="cls-1" x="642.55" y="708.6" width="35.26" height="35.26" transform="translate(1386.41 66.04) rotate(90)"/><rect class="cls-1" x="243.31" y="1093.32" width="35.26" height="35.26" transform="translate(1371.89 850.01) rotate(90)"/><rect class="cls-1" x="243.31" y="1155.54" width="35.26" height="35.26" transform="translate(1434.11 912.22) rotate(90)"/></svg>