<svg id="Lager_1" data-name="Lager 1" xmlns="http://www.w3.org/2000/svg" viewBox="0 0 1840 702"><defs><style>.cls-1{fill:#fff;}</style></defs><title>Rityta 1</title><path class="cls-1" d="M173.5,270.8,99.1,159.53,63.88,197.06V270.8H28V36.75H63.88V146l102-109.29h50l-91.84,97.44L217,270.8Z"/><path class="cls-1" d="M249.84,110.81l14.81-9.55,22.06-6.58h30.61l22.06,5.6,26,17.45,9.22,23v93.82l13.83,20.08-28.31,20.41-14.48-21.4L341.68,258,311.4,273.43H290.33l-22.38-6.91L251.82,257l-19.09-27.65V209.24l4.94-22.71,24.69-25,32.26-8.23h21.73l21.73,7.24,1.32,1V147.35l-2.63-6.58-11.19-7.57-14.48-3.62H290l-10.86,4-8.89,5.93L261,148.34,236.67,123Zm89.54,100.4V202l-5.27-5.6-7.57-3.62-15.14-4.61H298.56l-17.78,4.94L270.25,204l-2.3,8.56v6.58L276.18,231l5.93,3.29,12.84,4.28h9.22l21.4-8.23,11.19-11.85Z"/><path class="cls-1" d="M511.21,101.6v34.89H468.09v90.2l5.93,7.9,8.89,4h6.91l26.66-6.91,8.89,34.24-33.58,7.57H476l-24.36-9.22-18.76-26.66V136.49H403.24V101.6h29.63V41h35.22V101.6Z"/><path class="cls-1" d="M624.45,129.58l-15.14,7.24-11.52,12.84-6.58,14.15v107H556V97.32H591.2v12.51l4-4,23-11.19h22.71l20.08,5.6-8.56,33.91-16.79-4.61Z"/><path class="cls-1" d="M726.9,97.32V270.8H691.67V97.32Z"/><path class="cls-1" d="M824.25,94.68h29.63l30.61,8.23,20.74,28V270.8H870V143.73l-6.25-8.89-16.46-5.27H829.84l-20.41,13.5-7.9,11.19V270.8H766.31V97.32h35.22v10.53Z"/><path class="cls-1" d="M59.93,652.66,36.56,622,29,597.36V431.78H64.87V593.41l3.62,12.51L82,623.36l25.68,9.55h19.09l25.35-9.55,14.15-17.45,3.62-12.51V431.78h35.55V597.36L197.86,622l-23.37,30.61L132,668.46h-29.3Z"/><path class="cls-1" d="M358.54,656.28l-20.08,12.18H307.52l-34.24-16.13-22.06-30-7.24-24V560.49l7.24-24.69,22.06-29.63,33.58-16.46h29L355.58,497l2.63,2V417.62h35.22V665.83H358.54ZM342.41,528.23l-10.86-4H312.78l-16.46,9.22L282.5,552.26l-3.29,12.51v29.63l3.29,11.52L296,625l18.11,8.56h17.78L350,621.06l8.23-11.85V541.4l-5.27-6.58Z"/><path class="cls-1" d="M548.89,656.28l-20.08,12.18H497.87l-34.24-16.13-22.06-30-7.24-24V560.49l7.24-24.69,22.06-29.63,33.58-16.46h29L545.93,497l2.63,2V417.62h35.22V665.83H548.89ZM532.76,528.23l-10.86-4H503.13l-16.46,9.22-13.83,18.76-3.29,12.51v29.63l3.29,11.52L486.35,625l18.11,8.56h17.78l18.11-12.51,8.23-11.85V541.4l-5.27-6.58Z"/><path class="cls-1" d="M678.77,556.54l48.06,9.55,19.42,12.84,13.5,21.73v29.63L746.91,649.7l-16.79,12.18-23,6.58h-29l-27.32-6.91L635,648.71l-10.53-11.85,24.69-23.7,8.56,9.88,7.24,5.6L684,633.9h19.09L714,630.6l6.58-4.61,4.28-5.93v-9.55l-4.28-6.91-7.24-4.94-44.44-9.22-22.06-11.85-14.48-19.75V526.91l11.19-19.42,16.13-12.18,19.75-5.6h29l26,6.91,23.37,15.8-19.42,29-17.78-12.18-15.8-4.94H685.36l-11.85,3.29-3.29,3-3,5.27V547l4.61,5.93Z"/><path class="cls-1" d="M885.5,496.63v34.89H842.38v90.2l5.93,7.9,8.89,4h6.91l26.66-6.91,8.89,34.23-33.58,7.57h-15.8l-24.36-9.22-18.76-26.66V531.52H777.53V496.63h29.63V436.06h35.22v60.57Z"/><path class="cls-1" d="M998.74,524.61l-15.14,7.24-11.52,12.84-6.58,14.16v107H930.27V492.35h35.22v12.51l4-3.95,23-11.19h22.71l20.08,5.6-8.56,33.91-16.79-4.61Z"/><path class="cls-1" d="M1074.6,652.33,1057.15,627l-6.26-28.31V559.83l6.26-28.31,17.45-25.35,33.25-16.46h34.89l33.58,16.46,17.45,25.35,5.93,28.31v38.84L1193.77,627l-17.45,25.35-33.58,16.13h-34.89Zm78.68-27,7.24-11.19,4.28-20.08V563.78l-4.28-19.09-7.9-11.85-16.13-8.23h-22.71l-15.47,8.23-8.23,11.52-4,19.42v30.28l4,20.41,7.57,10.86,16.79,8.56h21.73Z"/><path class="cls-1" d="M1298.15,489.71h30l30.61,8.23,9.88,13.83,11.19-9.22,22.38-12.84h30l30.61,8.23,20.74,28v139.9h-35.22V538.76l-6.25-8.89-16.46-5.27h-17.78l-20.41,13.5-7.9,11.19V665.83h-35.22V538.76l-6.25-8.89-16.46-5.27h-17.78l-20.41,13.5-7.9,11.19V665.83h-35.22V492.35h35.22v10.53Z"/><path class="cls-1" d="M1558.3,605.92l13.83,19.42,17.12,8.23H1606l19.75-5.27,20.08-12.18,18.43,28.31-25.35,16.79-29,7.24h-27.65L1548.75,652l-22.06-29.63-6.91-24V560.49l6.91-24.69,22.06-29.63,33.58-16.46H1612l33.58,16.46,21.73,29.63,7.9,22.71V598H1555Zm81.31-42.8L1636,552.59l-13.5-18.76-16.79-9.22h-17.78l-16.13,8.56-14.16,19.09-2.3,10.86Z"/><path class="cls-1" d="M1783.46,524.61l-15.14,7.24-11.52,12.84-6.58,14.16v107H1715V492.35h35.22v12.51l4-3.95,23-11.19h22.71l20.08,5.6-8.56,33.91-16.79-4.61Z"/><rect class="cls-1" x="689.95" y="28.84" width="35.26" height="35.26"/><rect class="cls-1" x="1074.67" y="428.08" width="35.26" height="35.26"/><rect class="cls-1" x="1136.89" y="428.08" width="35.26" height="35.26"/></svg>