<?xml version="1.0" encoding="utf-8"?>
<!-- Generator: Adobe Illustrator 21.1.0, SVG Export Plug-In . SVG Version: 6.00 Build 0)  -->
<svg version="1.1" id="Lager_1" xmlns="http://www.w3.org/2000/svg" xmlns:xlink="http://www.w3.org/1999/xlink" x="0px" y="0px"
	 viewBox="0 0 736 1894" style="enable-background:new 0 0 736 1894;" xml:space="preserve">
<style type="text/css">
	.st0{fill:#FFFFFF;}
</style>
<title>Rityta 1</title>
<path class="st0" d="M435.8,192.1l111.3-74.4l-37.5-35.2h-73.7V46.6h234v35.9H560.6l109.3,102v50l-97.4-91.8l-136.6,92.9v-43.5
	H435.8z"/>
<path class="st0" d="M595.8,268.5l9.5,14.8l6.6,22.1V336l-5.6,22l-17.5,26l-23,9.2h-93.9l-20.1,13.9l-20.4-28.3l21.6-14.5l-4.3-4
	L433.2,330v-21l6.9-22.4l9.5-16.1l27.6-19.1h20.1l22.7,4.9l25,24.7l8.2,32.3V335l-7.2,21.7l-1,1.3h14.2l6.6-2.6l7.6-11.2l3.6-14.5
	v-21.1l-4-10.9l-5.9-8.9l-8.9-9.2l25.3-24.4L595.8,268.5z M495.4,358h9.2l5.6-5.3l3.6-7.6l4.6-15.2v-12.8l-4.9-17.8l-10.9-10.5
	l-8.6-2.3h-6.6l-11.9,8.2l-3.3,5.9l-4.3,12.8v9.2l8.2,21.4l11.9,11.2L495.4,358z"/>
<path class="st0" d="M605,529.9h-34.9v-43.1H480l-7.9,5.9l-4,8.9v6.9l6.9,26.7l-34.2,8.9l-7.6-33.6v-15.8l9.2-24.4l26.7-18.8h101.1
	v-29.6H605v29.6h60.6v35.2H605V529.9z"/>
<path class="st0" d="M577.1,643.1l-7.2-15.1l-12.8-11.6l-14.2-6.6h-107v-35.2h173.4v35.2h-12.5l4,4l11.2,23v22.7l-5.6,20.1
	l-33.9-8.6l4.6-16.8V643.1z"/>
<path class="st0" d="M609.3,745.5H435.8v-35.2h173.5V745.5z"/>
<path class="st0" d="M612,842.9v29.6l-8.2,30.6l-28,20.7H435.9v-35.2h127l8.9-6.2l5.3-16.5v-17.5L563.6,828l-11.2-7.9H435.9v-35.2
	h173.4v35.2h-10.5L612,842.9z"/>
<path class="st0" d="M54,78.6l30.6-23.4l24.7-7.6h165.6v35.9H113.3l-12.5,3.6l-17.4,13.5l-9.6,25.7v19.1l9.6,25.3l17.4,14.2
	l12.5,3.6h161.6v35.6H109.3l-24.7-7.6L54,193.1l-15.8-42.5v-29.3L54,78.6z"/>
<path class="st0" d="M50.4,377.2l-12.2-20.1v-30.9L54.3,292l30-22.1l24-7.2h37.9l24.7,7.2l29.6,22.1l16.5,33.6v29l-7.2,19.8l-2,2.6
	H289v35.2H40.8v-34.9L50.4,377.2L50.4,377.2z M178.4,361.1l4-10.9v-18.8l-9.3-16.4l-18.8-13.8l-12.5-3.3h-29.6l-11.5,3.3l-19.1,13.5
	L73,332.8v17.8l12.5,18.1l11.8,8.2h67.8l6.6-5.3L178.4,361.1z"/>
<path class="st0" d="M50.4,567.5l-12.2-20.1v-30.9l16.1-34.2l30-22.1l24-7.2h37.9l24.7,7.2l29.6,22.1l16.5,33.6v29l-7.2,19.8l-2,2.6
	H289v35.2H40.8v-34.9L50.4,567.5L50.4,567.5z M178.4,551.4l4-10.9v-18.8l-9.2-16.5l-18.8-13.8l-12.5-3.3h-29.6l-11.5,3.3l-19.1,13.5
	L73.1,523v17.8l12.5,18.1l11.8,8.2h67.8l6.6-5.3L178.4,551.4z"/>
<path class="st0" d="M150.1,697.4l-9.5,48.1l-12.8,19.4l-21.7,13.5H76.5l-19.4-12.8l-12.2-16.8l-6.6-23v-29l6.9-27.3L58,653.7
	l11.8-10.5l23.7,24.7l-9.9,8.6l-5.6,7.2l-5.3,19.1v19.1l3.3,10.9l4.6,6.6l5.9,4.3h9.6l6.9-4.3l5-7.2l9.2-44.4l11.8-22.1l19.8-14.5
	h30.9l19.4,11.2l12.2,16.1l5.6,19.8v29l-6.9,26l-15.8,23.4l-29-19.4l12.2-17.8l4.9-15.8v-19.4l-3.3-11.8l-3-3.3l-5.3-3h-11.1
	l-5.9,4.6L150.1,697.4z"/>
<path class="st0" d="M210,904.1h-34.9v-43.2H84.9l-7.9,6l-4,8.9v6.9l7,26.6l-34.2,8.9l-7.6-33.6v-15.8l9.2-24.4l26.7-18.8h101V796
	H210v29.6h60.6v35.2H210V904.1z"/>
<path class="st0" d="M182,1017.4l-7.2-15.1L162,990.8l-14.2-6.6h-107V949h173.5v35.2h-12.5l4,4l11.2,23v22.7l-5.6,20.1l-33.9-8.6
	l4.6-16.8L182,1017.4z"/>
<path class="st0" d="M54.3,1093.2l25.3-17.4l28.3-6.3h38.8l28.3,6.3l25.3,17.4l16.5,33.2v34.9l-16.5,33.6l-25.3,17.4l-28.3,5.9H108
	l-28.3-5.9l-25.4-17.4l-16.1-33.6v-34.9L54.3,1093.2z M81.3,1171.9l11.2,7.2l20.1,4.3h30.3l19.1-4.3l11.8-7.9l8.2-16.1v-22.7
	l-8.2-15.4l-11.5-8.2l-19.4-4h-30.3l-20.4,4l-10.9,7.6l-8.6,16.8v21.7L81.3,1171.9z"/>
<path class="st0" d="M216.9,1316.8v30l-8.2,30.6l-13.8,9.9l9.2,11.2l12.8,22.4v30l-8.2,30.6l-28,20.7H40.8V1467h127.1l8.9-6.2
	l5.2-16.5v-17.8l-13.5-20.4l-11.2-7.9H40.8V1363h127.1l8.9-6.2l5.3-16.5v-17.8l-13.5-20.4l-11.2-7.9H40.9V1259h173.4v35.2h-10.5
	L216.9,1316.8z"/>
<path class="st0" d="M100.7,1576.9l-19.4,13.8l-8.2,17.1v16.8l5.3,19.8l12.2,20.1l-28.3,18.4l-16.8-25.3l-7.2-29V1601l16.5-33.6
	l29.6-22.1l24-6.9h37.9l24.7,6.9l29.6,22.1l16.5,33.6v29.6l-16.5,33.6l-29.6,21.7l-22.7,7.9h-39.5v-120.2L100.7,1576.9z
	 M143.5,1658.3l10.5-3.6l18.8-13.5l9.2-16.9v-17.8l-8.6-16.1l-19.1-14.2l-10.9-2.3L143.5,1658.3L143.5,1658.3z"/>
<path class="st0" d="M182,1802.1l-7.2-15.1l-12.8-11.6l-14.2-6.6h-107v-35.2h173.5v35.2h-12.5l4,4l11.2,23v22.8l-5.6,20.1l-33.9-8.6
	l4.5-16.8V1802.1z"/>
<rect x="642.5" y="708.5" class="st0" width="35.3" height="35.3"/>
<rect x="243.3" y="1093.3" class="st0" width="35.3" height="35.3"/>
<rect x="243.3" y="1155.5" class="st0" width="35.3" height="35.3"/>
</svg>
